<?xml version="1.0" encoding="UTF-8" standalone="no"?>
<!DOCTYPE svg PUBLIC "-//W3C//DTD SVG 1.1//EN"
 "http://www.w3.org/Graphics/SVG/1.1/DTD/svg11.dtd">
<!-- Generated by graphviz version 2.43.0 (0)
 -->
<!-- Title: パッケージ関連図 Pages: 1 -->
<svg width="576pt" height="387pt"
 viewBox="0.00 0.00 576.00 387.00" xmlns="http://www.w3.org/2000/svg" xmlns:xlink="http://www.w3.org/1999/xlink">
<g id="graph0" class="graph" transform="scale(1 1) rotate(0) translate(4 383)">
<title>パッケージ関連図</title>
<polygon fill="white" stroke="transparent" points="-4,4 -4,-383 572,-383 572,4 -4,4"/>
<text text-anchor="middle" x="284" y="-7.8" font-family="Times,serif" font-size="14.00">パッケージ関連図</text>
<g id="clust1" class="cluster">
<title>cluster_library.domain.type</title>
<polygon fill="lemonchiffon" stroke="#eedd82" stroke-width="2" points="330,-31 330,-123 560,-123 560,-31 330,-31"/>
<text text-anchor="middle" x="445" y="-107.8" font-family="Times,serif" font-size="14.00">ビジネスルールを表現する基本型</text>
<text text-anchor="middle" x="445" y="-92.8" font-family="Times,serif" font-size="14.00">library.domain.type</text>
</g>
<g id="clust2" class="cluster">
<title>cluster_library.domain.model</title>
<polygon fill="lemonchiffon" stroke="#eedd82" stroke-width="2" points="128,-131 128,-371 452,-371 452,-131 128,-131"/>
<text text-anchor="middle" x="290" y="-355.8" font-family="Times,serif" font-size="14.00">ビジネスルールを表現する複合型</text>
<text text-anchor="middle" x="290" y="-340.8" font-family="Times,serif" font-size="14.00">library.domain.model</text>
</g>
<!-- summary -->
<g id="node1" class="node">
<title>summary</title>
<polygon fill="none" stroke="black" points="114,-325 0,-325 0,-287 120,-287 120,-319 114,-325"/>
<polyline fill="none" stroke="black" points="114,-325 114,-319 "/>
<polyline fill="none" stroke="black" points="120,-319 114,-319 "/>
<text text-anchor="start" x="8" y="-309.8" font-family="Times,serif" font-size="14.00">パッケージ数: 8</text>
<text text-anchor="start" x="8" y="-294.8" font-family="Times,serif" font-size="14.00">関連数: 12</text>
</g>
<!-- library.domain.model.loan -->
<g id="node2" class="node">
<title>library.domain.model.loan</title>
<g id="a_node2"><a xlink:href="./domain.html#library.domain.model.loan" xlink:title="貸出\nloan">
<polygon fill="#eedd82" stroke="black" points="444,-251 390,-251 390,-213 444,-213 444,-251"/>
<text text-anchor="middle" x="417" y="-235.8" font-family="Times,serif" font-size="14.00">貸出</text>
<text text-anchor="middle" x="417" y="-220.8" font-family="Times,serif" font-size="14.00">loan</text>
</a>
</g>
</g>
<!-- library.domain.type.date -->
<g id="node3" class="node">
<title>library.domain.type.date</title>
<g id="a_node3"><a xlink:href="./domain.html#library.domain.type.date" xlink:title="日付\ndate">
<polygon fill="#eedd82" stroke="black" points="471,-77 417,-77 417,-39 471,-39 471,-77"/>
<text text-anchor="middle" x="444" y="-61.8" font-family="Times,serif" font-size="14.00">日付</text>
<text text-anchor="middle" x="444" y="-46.8" font-family="Times,serif" font-size="14.00">date</text>
</a>
</g>
</g>
<!-- library.domain.model.loan&#45;&gt;library.domain.type.date -->
<g id="edge1" class="edge">
<title>library.domain.model.loan&#45;&gt;library.domain.type.date</title>
<path fill="none" stroke="black" d="M432.99,-212.92C440.65,-203.04 449.02,-190.16 453,-177 462.02,-147.2 457.21,-111.32 451.78,-87.01"/>
<polygon fill="black" stroke="black" points="455.12,-85.93 449.37,-77.03 448.31,-87.58 455.12,-85.93"/>
</g>
<!-- library.domain.model.material -->
<g id="node5" class="node">
<title>library.domain.model.material</title>
<g id="a_node5"><a xlink:href="./domain.html#library.domain.model.material" xlink:title="所蔵品目と所蔵品\nmaterial">
<polygon fill="#eedd82" stroke="black" points="271.5,-177 140.5,-177 140.5,-139 271.5,-139 271.5,-177"/>
<text text-anchor="middle" x="206" y="-161.8" font-family="Times,serif" font-size="14.00">所蔵品目と所蔵品</text>
<text text-anchor="middle" x="206" y="-146.8" font-family="Times,serif" font-size="14.00">material</text>
</a>
</g>
</g>
<!-- library.domain.model.loan&#45;&gt;library.domain.model.material -->
<g id="edge3" class="edge">
<title>library.domain.model.loan&#45;&gt;library.domain.model.material</title>
<path fill="none" stroke="black" d="M389.85,-221.73C359.35,-211.33 308.83,-194.09 268.46,-180.31"/>
<polygon fill="black" stroke="black" points="269.56,-176.99 258.96,-177.07 267.3,-183.61 269.56,-176.99"/>
</g>
<!-- library.domain.model.member -->
<g id="node7" class="node">
<title>library.domain.model.member</title>
<g id="a_node7"><a xlink:href="./domain.html#library.domain.model.member" xlink:title="会員\nmember">
<polygon fill="#eedd82" stroke="black" points="370,-177 294,-177 294,-139 370,-139 370,-177"/>
<text text-anchor="middle" x="332" y="-161.8" font-family="Times,serif" font-size="14.00">会員</text>
<text text-anchor="middle" x="332" y="-146.8" font-family="Times,serif" font-size="14.00">member</text>
</a>
</g>
</g>
<!-- library.domain.model.loan&#45;&gt;library.domain.model.member -->
<g id="edge5" class="edge">
<title>library.domain.model.loan&#45;&gt;library.domain.model.member</title>
<path fill="none" stroke="black" d="M395.55,-212.83C385.18,-204.05 372.58,-193.37 361.34,-183.85"/>
<polygon fill="black" stroke="black" points="363.33,-180.96 353.44,-177.16 358.81,-186.3 363.33,-180.96"/>
</g>
<!-- library.domain.model.delay -->
<g id="node9" class="node">
<title>library.domain.model.delay</title>
<g id="a_node9"><a xlink:href="./domain.html#library.domain.model.delay" xlink:title="遅延\ndelay">
<polygon fill="#eedd82" stroke="black" points="443.5,-177 388.5,-177 388.5,-139 443.5,-139 443.5,-177"/>
<text text-anchor="middle" x="416" y="-161.8" font-family="Times,serif" font-size="14.00">遅延</text>
<text text-anchor="middle" x="416" y="-146.8" font-family="Times,serif" font-size="14.00">delay</text>
</a>
</g>
</g>
<!-- library.domain.model.loan&#45;&gt;library.domain.model.delay -->
<g id="edge8" class="edge">
<title>library.domain.model.loan&#45;&gt;library.domain.model.delay</title>
<path fill="none" stroke="black" d="M416.75,-212.83C416.64,-205.13 416.51,-195.97 416.39,-187.42"/>
<polygon fill="black" stroke="black" points="419.89,-187.36 416.26,-177.41 412.9,-187.46 419.89,-187.36"/>
</g>
<!-- library.domain.model.reservation -->
<g id="node4" class="node">
<title>library.domain.model.reservation</title>
<g id="a_node4"><a xlink:href="./domain.html#library.domain.model.reservation" xlink:title="予約\nreservation">
<polygon fill="#eedd82" stroke="black" points="352,-251 254,-251 254,-213 352,-213 352,-251"/>
<text text-anchor="middle" x="303" y="-235.8" font-family="Times,serif" font-size="14.00">予約</text>
<text text-anchor="middle" x="303" y="-220.8" font-family="Times,serif" font-size="14.00">reservation</text>
</a>
</g>
</g>
<!-- library.domain.model.reservation&#45;&gt;library.domain.model.material -->
<g id="edge2" class="edge">
<title>library.domain.model.reservation&#45;&gt;library.domain.model.material</title>
<path fill="none" stroke="black" d="M278.52,-212.83C266.46,-203.88 251.75,-192.96 238.73,-183.3"/>
<polygon fill="black" stroke="black" points="240.59,-180.31 230.47,-177.16 236.41,-185.93 240.59,-180.31"/>
</g>
<!-- library.domain.model.reservation&#45;&gt;library.domain.model.member -->
<g id="edge11" class="edge">
<title>library.domain.model.reservation&#45;&gt;library.domain.model.member</title>
<path fill="none" stroke="black" d="M310.32,-212.83C313.49,-204.96 317.27,-195.57 320.78,-186.85"/>
<polygon fill="black" stroke="black" points="324.09,-188 324.58,-177.41 317.6,-185.38 324.09,-188"/>
</g>
<!-- library.domain.model.retention -->
<g id="node6" class="node">
<title>library.domain.model.retention</title>
<g id="a_node6"><a xlink:href="./domain.html#library.domain.model.retention" xlink:title="取置\nretention">
<polygon fill="#eedd82" stroke="black" points="378.5,-325 295.5,-325 295.5,-287 378.5,-287 378.5,-325"/>
<text text-anchor="middle" x="337" y="-309.8" font-family="Times,serif" font-size="14.00">取置</text>
<text text-anchor="middle" x="337" y="-294.8" font-family="Times,serif" font-size="14.00">retention</text>
</a>
</g>
</g>
<!-- library.domain.model.retention&#45;&gt;library.domain.model.loan -->
<g id="edge4" class="edge">
<title>library.domain.model.retention&#45;&gt;library.domain.model.loan</title>
<path fill="none" stroke="black" d="M357.19,-286.83C366.85,-278.13 378.58,-267.58 389.08,-258.13"/>
<polygon fill="black" stroke="black" points="391.73,-260.45 396.82,-251.16 387.04,-255.25 391.73,-260.45"/>
</g>
<!-- library.domain.model.retention&#45;&gt;library.domain.model.reservation -->
<g id="edge12" class="edge">
<title>library.domain.model.retention&#45;&gt;library.domain.model.reservation</title>
<path fill="none" stroke="black" d="M328.42,-286.83C324.66,-278.88 320.17,-269.37 316.02,-260.57"/>
<polygon fill="black" stroke="black" points="319.13,-258.96 311.7,-251.41 312.8,-261.95 319.13,-258.96"/>
</g>
<!-- library.domain.model.retention&#45;&gt;library.domain.model.material -->
<g id="edge9" class="edge">
<title>library.domain.model.retention&#45;&gt;library.domain.model.material</title>
<path fill="none" stroke="black" d="M295.24,-299.05C244.9,-290.91 164.83,-274.6 147,-251 136.82,-237.52 140.19,-228.46 147,-213 151.98,-201.68 160.64,-191.7 169.81,-183.5"/>
<polygon fill="black" stroke="black" points="172.13,-186.13 177.57,-177.04 167.64,-180.75 172.13,-186.13"/>
</g>
<!-- library.domain.model.retention&#45;&gt;library.domain.model.member -->
<g id="edge6" class="edge">
<title>library.domain.model.retention&#45;&gt;library.domain.model.member</title>
<path fill="none" stroke="black" d="M347.46,-286.66C352.65,-276.5 358.36,-263.44 361,-251 364.51,-234.48 365.12,-229.38 361,-213 358.66,-203.7 354.38,-194.26 349.81,-185.93"/>
<polygon fill="black" stroke="black" points="352.69,-183.92 344.61,-177.06 346.65,-187.46 352.69,-183.92"/>
</g>
<!-- library.domain.model.returned -->
<g id="node8" class="node">
<title>library.domain.model.returned</title>
<g id="a_node8"><a xlink:href="./domain.html#library.domain.model.returned" xlink:title="返却\nreturned">
<polygon fill="#eedd82" stroke="black" points="236,-251 156,-251 156,-213 236,-213 236,-251"/>
<text text-anchor="middle" x="196" y="-235.8" font-family="Times,serif" font-size="14.00">返却</text>
<text text-anchor="middle" x="196" y="-220.8" font-family="Times,serif" font-size="14.00">returned</text>
</a>
</g>
</g>
<!-- library.domain.model.returned&#45;&gt;library.domain.model.material -->
<g id="edge7" class="edge">
<title>library.domain.model.returned&#45;&gt;library.domain.model.material</title>
<path fill="none" stroke="black" d="M198.52,-212.83C199.59,-205.13 200.86,-195.97 202.05,-187.42"/>
<polygon fill="black" stroke="black" points="205.53,-187.8 203.44,-177.41 198.6,-186.84 205.53,-187.8"/>
</g>
<!-- library.domain.model.delay&#45;&gt;library.domain.type.date -->
<g id="edge10" class="edge">
<title>library.domain.model.delay&#45;&gt;library.domain.type.date</title>
<path fill="none" stroke="black" d="M421.27,-138.57C425.44,-123.97 431.33,-103.34 436.07,-86.74"/>
<polygon fill="black" stroke="black" points="439.47,-87.6 438.85,-77.02 432.74,-85.67 439.47,-87.6"/>
</g>
</g>
</svg>
