<?xml version="1.0" encoding="UTF-8" standalone="no"?>
<!DOCTYPE svg PUBLIC "-//W3C//DTD SVG 1.1//EN"
 "http://www.w3.org/Graphics/SVG/1.1/DTD/svg11.dtd">
<!-- Generated by graphviz version 2.43.0 (0)
 -->
<!-- Title: パッケージ関連図 Pages: 1 -->
<svg width="376pt" height="143pt"
 viewBox="0.00 0.00 376.00 143.00" xmlns="http://www.w3.org/2000/svg" xmlns:xlink="http://www.w3.org/1999/xlink">
<g id="graph0" class="graph" transform="scale(1 1) rotate(0) translate(4 139)">
<title>パッケージ関連図</title>
<polygon fill="white" stroke="transparent" points="-4,4 -4,-139 372,-139 372,4 -4,4"/>
<text text-anchor="middle" x="184" y="-7.8" font-family="Times,serif" font-size="14.00">パッケージ関連図</text>
<!-- summary -->
<g id="node1" class="node">
<title>summary</title>
<polygon fill="none" stroke="black" points="114,-135 0,-135 0,-97 120,-97 120,-129 114,-135"/>
<polyline fill="none" stroke="black" points="114,-135 114,-129 "/>
<polyline fill="none" stroke="black" points="120,-129 114,-129 "/>
<text text-anchor="start" x="8" y="-119.8" font-family="Times,serif" font-size="14.00">パッケージ数: 2</text>
<text text-anchor="start" x="8" y="-104.8" font-family="Times,serif" font-size="14.00">関連数: 1</text>
</g>
<!-- library.domain.model -->
<g id="node2" class="node">
<title>library.domain.model</title>
<g id="a_node2"><a xlink:href="./domain.html#library.domain.model" xlink:title="ビジネスルールを表現する複合型\nlibrary.domain.model">
<polygon fill="#eedd82" stroke="black" points="368,-135 138,-135 138,-97 368,-97 368,-135"/>
<text text-anchor="middle" x="253" y="-119.8" font-family="Times,serif" font-size="14.00">ビジネスルールを表現する複合型</text>
<text text-anchor="middle" x="253" y="-104.8" font-family="Times,serif" font-size="14.00">library.domain.model</text>
</a>
</g>
</g>
<!-- library.domain.type -->
<g id="node3" class="node">
<title>library.domain.type</title>
<g id="a_node3"><a xlink:href="./domain.html#library.domain.type" xlink:title="ビジネスルールを表現する基本型\nlibrary.domain.type">
<polygon fill="#eedd82" stroke="black" points="368,-61 138,-61 138,-23 368,-23 368,-61"/>
<text text-anchor="middle" x="253" y="-45.8" font-family="Times,serif" font-size="14.00">ビジネスルールを表現する基本型</text>
<text text-anchor="middle" x="253" y="-30.8" font-family="Times,serif" font-size="14.00">library.domain.type</text>
</a>
</g>
</g>
<!-- library.domain.model&#45;&gt;library.domain.type -->
<g id="edge1" class="edge">
<title>library.domain.model&#45;&gt;library.domain.type</title>
<path fill="none" stroke="black" d="M253,-96.83C253,-89.13 253,-79.97 253,-71.42"/>
<polygon fill="black" stroke="black" points="256.5,-71.41 253,-61.41 249.5,-71.41 256.5,-71.41"/>
</g>
</g>
</svg>
